<svg width="301" height="30" viewBox="0 0 301 30" fill="none" xmlns="http://www.w3.org/2000/svg">
<path d="M7.0752 16.2764L7.48535 19.0889L8.08594 16.5547L12.3047 1.67188H14.6777L18.7939 16.5547L19.3799 19.1328L19.834 16.2617L23.1445 1.67188H25.9717L20.8008 23H18.2373L13.8428 7.45801L13.5059 5.83203L13.1689 7.45801L8.61328 23H6.0498L0.893555 1.67188H3.70605L7.0752 16.2764ZM27.4951 14.9287C27.4951 13.376 27.7979 11.9795 28.4033 10.7393C29.0186 9.49902 29.8682 8.54199 30.9521 7.86816C32.0459 7.19434 33.291 6.85742 34.6875 6.85742C36.8457 6.85742 38.5889 7.60449 39.917 9.09863C41.2549 10.5928 41.9238 12.5801 41.9238 15.0605V15.251C41.9238 16.7939 41.626 18.1807 41.0303 19.4111C40.4443 20.6318 39.5996 21.584 38.4961 22.2676C37.4023 22.9512 36.1426 23.293 34.7168 23.293C32.5684 23.293 30.8252 22.5459 29.4873 21.0518C28.1592 19.5576 27.4951 17.5801 27.4951 15.1191V14.9287ZM30.2197 15.251C30.2197 17.0088 30.625 18.4199 31.4355 19.4844C32.2559 20.5488 33.3496 21.0811 34.7168 21.0811C36.0938 21.0811 37.1875 20.5439 37.998 19.4697C38.8086 18.3857 39.2139 16.8721 39.2139 14.9287C39.2139 13.1904 38.7988 11.7842 37.9688 10.71C37.1484 9.62598 36.0547 9.08398 34.6875 9.08398C33.3496 9.08398 32.2705 9.61621 31.4502 10.6807C30.6299 11.7451 30.2197 13.2686 30.2197 15.251ZM52.9834 9.58203C52.5732 9.51367 52.1289 9.47949 51.6504 9.47949C49.873 9.47949 48.667 10.2363 48.0322 11.75V23H45.3223V7.15039H47.959L48.0029 8.98145C48.8916 7.56543 50.1514 6.85742 51.7822 6.85742C52.3096 6.85742 52.71 6.92578 52.9834 7.0625V9.58203ZM59.9121 15.6611L58.2129 17.4336V23H55.5029V0.5H58.2129V14.1084L59.6631 12.3652L64.5996 7.15039H67.8955L61.7285 13.7715L68.6133 23H65.4346L59.9121 15.6611ZM70.752 21.5791C70.752 21.1104 70.8887 20.7197 71.1621 20.4072C71.4453 20.0947 71.8652 19.9385 72.4219 19.9385C72.9785 19.9385 73.3984 20.0947 73.6816 20.4072C73.9746 20.7197 74.1211 21.1104 74.1211 21.5791C74.1211 22.0283 73.9746 22.4043 73.6816 22.707C73.3984 23.0098 72.9785 23.1611 72.4219 23.1611C71.8652 23.1611 71.4453 23.0098 71.1621 22.707C70.8887 22.4043 70.752 22.0283 70.752 21.5791ZM82.0459 23H79.2334V1.67188H82.0459V23ZM89.3408 7.15039L89.4287 9.14258C90.6396 7.61914 92.2217 6.85742 94.1748 6.85742C97.5244 6.85742 99.2139 8.74707 99.2432 12.5264V23H96.5332V12.5117C96.5234 11.3691 96.2598 10.5244 95.7422 9.97754C95.2344 9.43066 94.4385 9.15723 93.3545 9.15723C92.4756 9.15723 91.7041 9.3916 91.04 9.86035C90.376 10.3291 89.8584 10.9443 89.4873 11.7061V23H86.7773V7.15039H89.3408ZM112.559 18.7959C112.559 18.0635 112.28 17.4971 111.724 17.0967C111.177 16.6865 110.215 16.335 108.838 16.042C107.471 15.749 106.382 15.3975 105.571 14.9873C104.771 14.5771 104.175 14.0889 103.784 13.5225C103.403 12.9561 103.213 12.2822 103.213 11.501C103.213 10.2021 103.76 9.10352 104.854 8.20508C105.957 7.30664 107.363 6.85742 109.072 6.85742C110.869 6.85742 112.324 7.32129 113.438 8.24902C114.561 9.17676 115.122 10.3633 115.122 11.8086H112.397C112.397 11.0664 112.08 10.4268 111.445 9.88965C110.82 9.35254 110.029 9.08398 109.072 9.08398C108.086 9.08398 107.314 9.29883 106.758 9.72852C106.201 10.1582 105.923 10.7197 105.923 11.4131C105.923 12.0674 106.182 12.5605 106.699 12.8926C107.217 13.2246 108.149 13.542 109.497 13.8447C110.854 14.1475 111.953 14.5088 112.793 14.9287C113.633 15.3486 114.253 15.8564 114.653 16.4521C115.063 17.0381 115.269 17.7559 115.269 18.6055C115.269 20.0215 114.702 21.1592 113.569 22.0186C112.437 22.8682 110.967 23.293 109.16 23.293C107.891 23.293 106.768 23.0684 105.791 22.6191C104.814 22.1699 104.048 21.5449 103.491 20.7441C102.944 19.9336 102.671 19.0596 102.671 18.1221H105.381C105.43 19.0303 105.791 19.7529 106.465 20.29C107.148 20.8174 108.047 21.0811 109.16 21.0811C110.186 21.0811 111.006 20.876 111.621 20.4658C112.246 20.0459 112.559 19.4893 112.559 18.7959ZM132.188 15.251C132.188 17.6631 131.636 19.6064 130.532 21.0811C129.429 22.5557 127.935 23.293 126.05 23.293C124.126 23.293 122.612 22.6826 121.509 21.4619V29.0938H118.799V7.15039H121.274L121.406 8.9082C122.51 7.54102 124.043 6.85742 126.006 6.85742C127.91 6.85742 129.414 7.5752 130.518 9.01074C131.631 10.4463 132.188 12.4434 132.188 15.002V15.251ZM129.478 14.9434C129.478 13.1562 129.097 11.7451 128.335 10.71C127.573 9.6748 126.528 9.15723 125.2 9.15723C123.56 9.15723 122.329 9.88477 121.509 11.3398V18.9131C122.319 20.3584 123.56 21.0811 125.229 21.0811C126.528 21.0811 127.559 20.5684 128.32 19.543C129.092 18.5078 129.478 16.9746 129.478 14.9434ZM138.589 23H135.879V7.15039H138.589V23ZM135.659 2.94629C135.659 2.50684 135.791 2.13574 136.055 1.83301C136.328 1.53027 136.729 1.37891 137.256 1.37891C137.783 1.37891 138.184 1.53027 138.457 1.83301C138.73 2.13574 138.867 2.50684 138.867 2.94629C138.867 3.38574 138.73 3.75195 138.457 4.04492C138.184 4.33789 137.783 4.48438 137.256 4.48438C136.729 4.48438 136.328 4.33789 136.055 4.04492C135.791 3.75195 135.659 3.38574 135.659 2.94629ZM150.601 9.58203C150.19 9.51367 149.746 9.47949 149.268 9.47949C147.49 9.47949 146.284 10.2363 145.649 11.75V23H142.939V7.15039H145.576L145.62 8.98145C146.509 7.56543 147.769 6.85742 149.399 6.85742C149.927 6.85742 150.327 6.92578 150.601 7.0625V9.58203ZM159.39 23.293C157.241 23.293 155.493 22.5898 154.146 21.1836C152.798 19.7676 152.124 17.8779 152.124 15.5146V15.0166C152.124 13.4443 152.422 12.043 153.018 10.8125C153.623 9.57227 154.463 8.60547 155.537 7.91211C156.621 7.20898 157.793 6.85742 159.053 6.85742C161.113 6.85742 162.715 7.53613 163.857 8.89355C165 10.251 165.571 12.1943 165.571 14.7236V15.8516H154.834C154.873 17.4141 155.327 18.6787 156.196 19.6455C157.075 20.6025 158.188 21.0811 159.536 21.0811C160.493 21.0811 161.304 20.8857 161.968 20.4951C162.632 20.1045 163.213 19.5869 163.711 18.9424L165.366 20.2314C164.038 22.2725 162.046 23.293 159.39 23.293ZM159.053 9.08398C157.959 9.08398 157.041 9.48438 156.299 10.2852C155.557 11.0762 155.098 12.1895 154.922 13.625H162.861V13.4199C162.783 12.043 162.412 10.9785 161.748 10.2266C161.084 9.46484 160.186 9.08398 159.053 9.08398ZM168.779 21.5791C168.779 21.1104 168.916 20.7197 169.189 20.4072C169.473 20.0947 169.893 19.9385 170.449 19.9385C171.006 19.9385 171.426 20.0947 171.709 20.4072C172.002 20.7197 172.148 21.1104 172.148 21.5791C172.148 22.0283 172.002 22.4043 171.709 22.707C171.426 23.0098 171.006 23.1611 170.449 23.1611C169.893 23.1611 169.473 23.0098 169.189 22.707C168.916 22.4043 168.779 22.0283 168.779 21.5791ZM189.111 13.1416H179.868V20.7002H190.605V23H177.056V1.67188H190.459V3.98633H179.868V10.8418H189.111V13.1416ZM196.23 7.15039L196.304 8.9082C197.466 7.54102 199.033 6.85742 201.006 6.85742C203.223 6.85742 204.731 7.70703 205.532 9.40625C206.06 8.64453 206.743 8.0293 207.583 7.56055C208.433 7.0918 209.434 6.85742 210.586 6.85742C214.062 6.85742 215.83 8.69824 215.889 12.3799V23H213.179V12.541C213.179 11.4082 212.92 10.5635 212.402 10.0068C211.885 9.44043 211.016 9.15723 209.795 9.15723C208.789 9.15723 207.954 9.45996 207.29 10.0654C206.626 10.6611 206.24 11.4668 206.133 12.4824V23H203.408V12.6143C203.408 10.3096 202.28 9.15723 200.024 9.15723C198.247 9.15723 197.031 9.91406 196.377 11.4277V23H193.667V7.15039H196.23ZM233.379 15.251C233.379 17.6631 232.827 19.6064 231.724 21.0811C230.62 22.5557 229.126 23.293 227.241 23.293C225.317 23.293 223.804 22.6826 222.7 21.4619V29.0938H219.99V7.15039H222.466L222.598 8.9082C223.701 7.54102 225.234 6.85742 227.197 6.85742C229.102 6.85742 230.605 7.5752 231.709 9.01074C232.822 10.4463 233.379 12.4434 233.379 15.002V15.251ZM230.669 14.9434C230.669 13.1562 230.288 11.7451 229.526 10.71C228.765 9.6748 227.72 9.15723 226.392 9.15723C224.751 9.15723 223.521 9.88477 222.7 11.3398V18.9131C223.511 20.3584 224.751 21.0811 226.421 21.0811C227.72 21.0811 228.75 20.5684 229.512 19.543C230.283 18.5078 230.669 16.9746 230.669 14.9434ZM236.118 14.9287C236.118 13.376 236.421 11.9795 237.026 10.7393C237.642 9.49902 238.491 8.54199 239.575 7.86816C240.669 7.19434 241.914 6.85742 243.311 6.85742C245.469 6.85742 247.212 7.60449 248.54 9.09863C249.878 10.5928 250.547 12.5801 250.547 15.0605V15.251C250.547 16.7939 250.249 18.1807 249.653 19.4111C249.067 20.6318 248.223 21.584 247.119 22.2676C246.025 22.9512 244.766 23.293 243.34 23.293C241.191 23.293 239.448 22.5459 238.11 21.0518C236.782 19.5576 236.118 17.5801 236.118 15.1191V14.9287ZM238.843 15.251C238.843 17.0088 239.248 18.4199 240.059 19.4844C240.879 20.5488 241.973 21.0811 243.34 21.0811C244.717 21.0811 245.811 20.5439 246.621 19.4697C247.432 18.3857 247.837 16.8721 247.837 14.9287C247.837 13.1904 247.422 11.7842 246.592 10.71C245.771 9.62598 244.678 9.08398 243.311 9.08398C241.973 9.08398 240.894 9.61621 240.073 10.6807C239.253 11.7451 238.843 13.2686 238.843 15.251ZM267.979 19.2646L271.025 7.15039H273.735L269.121 23H266.924L263.071 10.9883L259.321 23H257.124L252.524 7.15039H255.22L258.34 19.0156L262.031 7.15039H264.214L267.979 19.2646ZM283.081 23.293C280.933 23.293 279.185 22.5898 277.837 21.1836C276.489 19.7676 275.815 17.8779 275.815 15.5146V15.0166C275.815 13.4443 276.113 12.043 276.709 10.8125C277.314 9.57227 278.154 8.60547 279.229 7.91211C280.312 7.20898 281.484 6.85742 282.744 6.85742C284.805 6.85742 286.406 7.53613 287.549 8.89355C288.691 10.251 289.263 12.1943 289.263 14.7236V15.8516H278.525C278.564 17.4141 279.019 18.6787 279.888 19.6455C280.767 20.6025 281.88 21.0811 283.228 21.0811C284.185 21.0811 284.995 20.8857 285.659 20.4951C286.323 20.1045 286.904 19.5869 287.402 18.9424L289.058 20.2314C287.729 22.2725 285.737 23.293 283.081 23.293ZM282.744 9.08398C281.65 9.08398 280.732 9.48438 279.99 10.2852C279.248 11.0762 278.789 12.1895 278.613 13.625H286.553V13.4199C286.475 12.043 286.104 10.9785 285.439 10.2266C284.775 9.46484 283.877 9.08398 282.744 9.08398ZM300.073 9.58203C299.663 9.51367 299.219 9.47949 298.74 9.47949C296.963 9.47949 295.757 10.2363 295.122 11.75V23H292.412V7.15039H295.049L295.093 8.98145C295.981 7.56543 297.241 6.85742 298.872 6.85742C299.399 6.85742 299.8 6.92578 300.073 7.0625V9.58203Z" fill="#FFFDFD"/>
</svg>
